<svg width="350" height="250" xmlns="http://www.w3.org/2000/svg">
 <g>
  <title>Layer 1</title>
  <rect fill="#ffffff" x="3" y="4" width="343" height="241" id="svg_7" rx="30" stroke-width="3" stroke="#007fff"/>
  <g id="svg_1" stroke="null" stroke-opacity="0">
   <path id="svg_2" fill-rule="evenodd" clip-rule="evenodd" fill="#005fbf" d="m151.07092,71.62857c7.50208,-0.69262 13.33071,-7.15592 13.33071,-14.71567c0,-8.13689 -6.63659,-14.77349 -14.77349,-14.77349s-14.7732,6.6366 -14.7732,14.77349c0,2.48142 0.69233,5.02052 1.84661,7.15577l5.26396,74.07054l54.21446,0.01467l22.23654,52.10137l29.1948,-11.44947l-4.52086,-10.76506l-16.33865,5.89789l-21.51515,-49.6716l-50.40766,0.33868l-0.69204,-9.38039l36.49115,0.01453l0,-13.87939l-37.88315,-0.01482l-1.67404,-29.71706l0.00001,0.00001z" stroke="#000000"/>
   <path id="svg_3" fill-rule="evenodd" clip-rule="evenodd" fill="#005fbf" d="m205.59648,177.85577c-9.1503,18.08812 -28.30231,30.00482 -48.73098,30.00482c-30.00482,0 -54.47684,-24.47202 -54.47684,-54.47684c0,-21.06729 12.7681,-40.64471 31.82062,-49.32323l1.23293,16.08963c-11.26898,7.10103 -18.21579,19.91375 -18.21579,33.34395c0,21.76638 17.75267,39.51875 39.51875,39.51875c19.9136,0 36.8944,-15.28239 39.21,-34.88754l9.6413,19.73046l0.00001,0z" stroke="#000000"/>
  </g>
 </g>

</svg>